<?xml version="1.0" encoding="utf-8"?>
<!-- Generator: Adobe Illustrator 22.0.0, SVG Export Plug-In . SVG Version: 6.00 Build 0)  -->
<svg version="1.1" id="Layer_1" xmlns="http://www.w3.org/2000/svg" xmlns:xlink="http://www.w3.org/1999/xlink" x="0px" y="0px"
	 viewBox="0 0 512 511" style="enable-background:new 0 0 512 511;" xml:space="preserve">
<path d="M67.2,68.4h-0.1c-5.5,0-10,4.5-10,10s4.5,10,10,10h0.1c5.5,0,10-4.5,10-10S72.7,68.4,67.2,68.4z"/>
<path d="M116.7,68.4h-0.1c-5.5,0-10,4.5-10,10s4.5,10,10,10h0.1c5.5,0,10-4.5,10-10S122.2,68.4,116.7,68.4z"/>
<path d="M166.2,68.4h-0.1c-5.5,0-10,4.5-10,10s4.5,10,10,10h0.1c5.5,0,10-4.5,10-10S171.8,68.4,166.2,68.4z"/>
<path d="M444.3,68.4H251.4c-5.5,0-10,4.5-10,10c0,5.5,4.5,10,10,10h192.9c5.5,0,10-4.5,10-10C454.3,72.9,449.8,68.4,444.3,68.4z"/>
<path d="M262.9,472.4c-2.6,0-5.2,1.1-7.1,2.9c-1.9,1.9-2.9,4.4-2.9,7.1s1.1,5.2,2.9,7.1c1.9,1.9,4.4,2.9,7.1,2.9s5.2-1.1,7.1-2.9
	c1.9-1.9,2.9-4.4,2.9-7.1s-1.1-5.2-2.9-7.1C268.1,473.5,265.5,472.4,262.9,472.4z"/>
<path d="M480.2,20.5H31.8C14.3,20.5,0,34.8,0,52.3v408.4c0,17.5,14.3,31.8,31.8,31.8H221c5.5,0,10-4.5,10-10s-4.5-10-10-10H31.8
	c-6.5,0-11.8-5.3-11.8-11.8V136.3h472v324.4c0,6.5-5.3,11.8-11.8,11.8H303.7c-5.5,0-10,4.5-10,10s4.5,10,10,10h176.6
	c17.5,0,31.8-14.3,31.8-31.8V52.3C512,34.8,497.7,20.5,480.2,20.5z M20,116.3v-64c0-6.5,5.3-11.8,11.8-11.8h448.5
	c6.5,0,11.8,5.3,11.8,11.8v64L20,116.3L20,116.3z"/>
<path d="M108.4,436.5h295.3c5.5,0,10-4.5,10-10s-4.5-10-10-10H108.4c-5.5,0-10,4.5-10,10S102.9,436.5,108.4,436.5z"/>
<g>
	<path d="M180.2,314.2c1,0,2.1,0.1,3.1,0.1c1.1,0,2.1,0,3,0c3.4,0,6.7-0.1,9.8-0.4s6-0.6,8.6-1c2.6-0.4,5-0.9,7-1.4
		c2-0.5,3.6-1,4.8-1.5h-0.1c2.2-1,3.9-1.8,4.9-2.5c1-0.7,1.7-1.3,2.1-1.7c0.6-0.7,1.1-1.5,1.4-2.3c0.3-0.8,0.4-1.6,0.4-2.5
		c0-1.9-0.7-3.9-2.1-6c-1.4-2.1-3.3-4.3-5.5-6.5c-2.2-2.2-4.7-4.4-7.4-6.6c-2.7-2.2-5.3-4.3-7.9-6.3l-13.5-11.1l2.1-19.2l58.4-25.5
		l8,19l-45.7,19.5c2.4,2,4.9,4.1,7.4,6.3c2.5,2.2,4.9,4.4,7.2,6.6c2.3,2.3,4.4,4.6,6.4,6.9c2,2.4,3.8,4.8,5.2,7.2
		c1.5,2.4,2.7,4.9,3.5,7.4c0.9,2.5,1.3,5.1,1.3,7.6c0,2.9-0.5,5.7-1.5,8.7c-1,2.9-2.6,6-4.8,9.1h0.1c-0.3,0.4-0.7,1-1.3,1.7
		c-0.6,0.7-1.5,1.6-2.5,2.5s-2.4,1.9-3.9,2.9s-3.4,2-5.5,3c-6,2.6-12,4.4-18,5.3c-6,0.9-12.2,1.4-18.5,1.4h-1.4c-0.9,0-1.8,0-2.8,0
		c-1,0-1.9,0-2.8-0.1c-8.1-0.1-15.3-0.6-21.7-1.5c-6.4-0.9-12-2.3-16.8-4.1c-9.8-3.8-16.5-9.4-20.2-16.7v0.1
		c-2.1-4-3.1-8.5-3.1-13.3c0-2.1,0.3-4.4,0.8-6.9c0.5-2.5,1.2-4.9,2-7.2c0.5-1.2,1-2.2,1.3-3c0.4-0.8,0.7-1.6,1.1-2.3
		c0.3-0.7,0.7-1.4,1.2-2.1c0.4-0.7,1-1.5,1.6-2.5l15.4,11.2c-0.6,1.1-1.3,2.2-2,3.3c-0.7,1.1-1.4,2.3-1.9,3.4s-1.1,2.4-1.5,3.6
		c-0.4,1.2-0.6,2.4-0.6,3.6c0,1.7,0.6,3.2,1.8,4.5c1.2,1.3,2.8,2.5,4.9,3.4c2.1,1,4.6,1.8,7.4,2.5c2.8,0.7,5.9,1.3,9.2,1.8
		s6.8,0.8,10.4,1.1C172.9,313.8,176.5,314,180.2,314.2L180.2,314.2z M246.1,213.3L192.4,236l0.5-9.7l49.6-20.7L246.1,213.3z"/>
	<path d="M344.8,312.6c1.2,0.6,2.4,1.1,3.7,1.3c1.3,0.2,2.5,0.4,3.8,0.5c1.4,0,2.7,0.3,4,0.8c1.3,0.5,2.3,1.3,3.3,2.2
		c0.9,0.9,1.7,2,2.2,3.2c0.6,1.3,0.8,2.6,0.8,4s-0.3,2.8-0.8,4c-0.6,1.3-1.3,2.3-2.2,3.3c-0.9,0.9-2,1.7-3.3,2.2
		c-1.3,0.5-2.6,0.8-4,0.8h-0.6c-1.1,0-2.6-0.1-4.3-0.2c-1.8-0.1-3.6-0.5-5.7-1.1c-2-0.6-4.1-1.4-6.2-2.6c-2.1-1.1-4.1-2.8-6-4.8
		c-2.5,2.4-5.3,4.4-8.3,6.1s-6.3,3.1-9.7,4.2c-3.4,1.1-6.9,1.9-10.6,2.4s-7.3,0.8-10.9,0.8c-2.1,0-4.3-0.1-6.6-0.4s-4.9-0.7-7.7-1.3
		l5.8-19.3c2,0.3,3.9,0.5,5.7,0.6c1.8,0.2,3.4,0.2,5,0.2c1.4,0,2.8-0.1,4.1-0.2c1.4-0.1,2.7-0.4,4.1-0.7c-1.3-4.7-2.8-9.3-4.7-13.8
		c-1.8-4.5-3.8-8.9-5.9-13.1c-2.1-4.2-4.3-8.2-6.5-12c-2.2-3.8-4.5-7.3-6.6-10.6c-2.2-3.2-4.3-6.2-6.2-8.8c-2-2.7-3.7-4.9-5.2-6.8
		l14.6-15.1l17.8,28.6c2.1,3.8,4,7.6,5.9,11.5c1.9,3.9,3.6,7.7,5.2,11.5c1.6,3.8,3.1,7.4,4.3,11c1.3,3.5,2.3,6.8,3.2,9.8
		c1.7-1.4,3.2-2.9,4.4-4.7c1.3-1.7,1.9-3.5,2-5.3c-0.5-6.7-1.1-13.2-1.7-19.6c-0.7-6.4-1.4-12.5-2.2-18.3
		c-0.8-5.8-1.5-11.3-2.3-16.5s-1.5-9.9-2.1-14.3l20.1-3.8c0,0.1,0.1,0.8,0.2,2.2c0.2,1.4,0.4,3.3,0.6,5.8c0.3,2.4,0.6,5.3,0.9,8.6
		c0.3,3.3,0.7,6.9,1.1,10.7c0.4,3.8,0.8,7.8,1.2,12c0.4,4.2,0.8,8.4,1.2,12.6s0.7,8.4,1,12.4c0.3,4.1,0.6,7.9,0.8,11.6
		c0.1,1.9,0.5,3.7,1.2,5.2C343.4,311.1,344.1,312.1,344.8,312.6z"/>
	<path d="M341,324.7c0-1.4,0.3-2.8,0.8-4c0.5-1.3,1.3-2.3,2.2-3.3c0.9-0.9,2-1.7,3.2-2.2c1.3-0.5,2.6-0.8,4-0.8h6.7h2.9
		c1.6,0,3.3-0.1,5-0.2c1.7-0.1,3.4-0.4,4.9-0.8s2.9-0.9,4.1-1.6c1.2-0.7,2-1.6,2.6-2.8c0.3-0.8,0.5-1.9,0.5-3.5c0-1-0.3-2.6-0.9-4.7
		c-0.6-2.1-1.4-4.4-2.4-6.9c-1-2.5-2.1-5.2-3.4-7.9c-1.3-2.8-2.5-5.4-3.8-7.8L386,269c1.2,2.7,2.4,5.6,3.6,8.7
		c1.2,3.1,2.3,6.2,3.2,9.3c0.9,3.2,1.7,6.3,2.3,9.4c0.6,3.1,0.9,6.1,0.9,9c0,4.4-0.8,8.4-2.3,12c-1.8,4.1-4.3,7.4-7.5,10.1
		c-3.2,2.7-6.9,4.6-11.3,5.9c-2.6,0.7-5.1,1.2-7.4,1.3c-2.4,0.2-4.6,0.2-6.7,0.2h-8.9h-0.6c-1.4,0-2.8-0.3-4-0.8
		c-1.3-0.5-2.3-1.2-3.2-2.2c-0.9-0.9-1.6-2-2.2-3.3C341.3,327.4,341,326.1,341,324.7z M370.4,340.8l14.4,14.4l-14.4,14.4l-14.4-14.4
		L370.4,340.8z"/>
</g>
</svg>
