<svg xmlns="http://www.w3.org/2000/svg" xmlns:xlink="http://www.w3.org/1999/xlink" style="margin:auto;background:#1A1A1A;display:block;z-index:1;position:relative" preserveAspectRatio="xMidYMid" viewBox="0 0 1536 674"><g transform=""><defs><path id="path-d6yqnjx2r0j-1" d="M-35 -35L35 -35L35 35L-35 35Z" fill="none" stroke="inherit" stroke-width="4.333333333333334" transform="scale(0.3)"/><path id="path-d6yqnjx2r0j-2" d="M0 -37A37 37 0 0 1 0 37A37 37 0 0 1 0 -37" fill="none" stroke="inherit" stroke-width="4.333333333333334" transform="scale(0.3)"/><path id="path-d6yqnjx2r0j-3" d="M0 -34.641L40 34.641L-40 34.641Z" fill="none" stroke="inherit" stroke-width="4.333333333333334" transform="scale(0.3)"/></defs><path id="path0" d="M 132.43224523551473 57.304063369505315&#10;c 0 51.17082121396949 -12.520520084269128 14.698001838055067 -27.218521922324193 14.698001838055067&#10;S 77.99520139086633 108.4748845834748 77.99520139086633 57.304063369505315&#10;s 12.520520084269128 -14.698001838055067 27.218521922324193 -14.698001838055067&#10;S 132.43224523551473 6.133242155535825 132.43224523551473 57.304063369505315&#10;z" fill="none" stroke="none"/><use xlink:href="#path-d6yqnjx2r0j-1" x="0" y="0" stroke="#ddeeff"><animateMotion begin="-3.6594727451733955s" dur="16.935314430352555s" keyPoints="1;0" keyTimes="0;1" repeatCount="indefinite" calcMode="linear"><mpath xlink:href="#path0"/></animateMotion></use><path id="path1" d="M 143.92801654623784 497.5587985726054&#10;c 0 59.610709272400776 -14.585599077289551 17.12222500377469 -31.707824081064242 17.12222500377469&#10;S 80.51236838410937 557.1695078450061 80.51236838410937 497.5587985726054&#10;s 14.585599077289551 -17.12222500377469 31.707824081064242 -17.12222500377469&#10;S 143.92801654623784 437.94808930020463 143.92801654623784 497.5587985726054&#10;z" fill="none" stroke="none"/><use xlink:href="#path-d6yqnjx2r0j-2" x="0" y="0" stroke="#ddeeff"><animateMotion begin="-4.505895229239231s" dur="11.469854924183227s" keyPoints="1;0" keyTimes="0;1" repeatCount="indefinite" calcMode="linear"><mpath xlink:href="#path1"/></animateMotion></use><path id="path2" d="M 294.1694961631581 219.3687084675064&#10;c 0 52.12033230316713 -12.752847265668553 14.970733746654389 -27.723581012322942 14.970733746654389&#10;S 238.72233413851222 271.4890407706735 238.72233413851222 219.3687084675064&#10;s 12.752847265668553 -14.970733746654389 27.723581012322942 -14.970733746654389&#10;S 294.1694961631581 167.24837616433928 294.1694961631581 219.3687084675064&#10;z" fill="none" stroke="none"/><use xlink:href="#path-d6yqnjx2r0j-2" x="0" y="0" stroke="#aabbcc"><animateMotion begin="-3.7451933264215564s" dur="17.174521421730006s" keyPoints="0;1" keyTimes="0;1" repeatCount="indefinite" calcMode="linear"><mpath xlink:href="#path2"/></animateMotion></use><path id="path3" d="M 350.4021112617916 443.99514590576536&#10;c 0 34.3130158557059 -8.395737922140803 9.855866256426163 -18.251604178566968 9.855866256426163&#10;S 313.89890290465763 478.30816176147124 313.89890290465763 443.99514590576536&#10;s 8.395737922140803 -9.855866256426163 18.251604178566968 -9.855866256426163&#10;S 350.4021112617916 409.68213005005947 350.4021112617916 443.99514590576536&#10;z" fill="none" stroke="none"/><use xlink:href="#path-d6yqnjx2r0j-3" x="0" y="0" stroke="#bbddff"><animateMotion begin="-4.05057014269527s" dur="19.55664700367915s" keyPoints="1;0" keyTimes="0;1" repeatCount="indefinite" calcMode="linear"><mpath xlink:href="#path3"/></animateMotion></use><path id="path4" d="M 425.98428700155836 236.83191195545658&#10;c 0 34.82492283231805 -8.52099175684378 10.002903366729655 -18.523895123573432 10.002903366729655&#10;S 388.9364967544115 271.65683478777464 388.9364967544115 236.83191195545658&#10;s 8.52099175684378 -10.002903366729655 18.523895123573432 -10.002903366729655&#10;S 425.98428700155836 202.0069891231385 425.98428700155836 236.83191195545658&#10;z" fill="none" stroke="none"/><use xlink:href="#path-d6yqnjx2r0j-1" x="0" y="0" stroke="#ddeeff"><animateMotion begin="-4.628289566377958s" dur="18.80808093925387s" keyPoints="1;0" keyTimes="0;1" repeatCount="indefinite" calcMode="linear"><mpath xlink:href="#path4"/></animateMotion></use><path id="path5" d="M 545.3370263351537 120.37145117829141&#10;c 0 58.208659719185924 -14.242544399375278 16.719508642744895 -30.96205304212017 16.719508642744895&#10;S 483.41292025091343 178.58011089747734 483.41292025091343 120.37145117829141&#10;s 14.242544399375278 -16.719508642744895 30.96205304212017 -16.719508642744895&#10;S 545.3370263351537 62.162791459105485 545.3370263351537 120.37145117829141&#10;z" fill="none" stroke="none"/><use xlink:href="#path-d6yqnjx2r0j-1" x="0" y="0" stroke="#bbddff"><animateMotion begin="-2.165896247430169s" dur="14.801251020274293s" keyPoints="0;1" keyTimes="0;1" repeatCount="indefinite" calcMode="linear"><mpath xlink:href="#path5"/></animateMotion></use><path id="path6" d="M 597.0357875672274 185.63423938766678&#10;c 0 41.897482853082664 -10.25151176192448 12.034383372693956 -22.285895134618436 12.034383372693956&#10;S 552.4639972979907 227.53172224074945 552.4639972979907 185.63423938766678&#10;s 10.25151176192448 -12.034383372693956 22.285895134618436 -12.034383372693956&#10;S 597.0357875672274 143.73675653458412 597.0357875672274 185.63423938766678&#10;z" fill="none" stroke="none"/><use xlink:href="#path-d6yqnjx2r0j-2" x="0" y="0" stroke="#bbddff"><animateMotion begin="-3.304844214843905s" dur="14.839430204136875s" keyPoints="1;0" keyTimes="0;1" repeatCount="indefinite" calcMode="linear"><mpath xlink:href="#path6"/></animateMotion></use><path id="path7" d="M 699.6127503143293 65.66733088637503&#10;c 0 46.78234302026632 -11.446743504958778 13.437481505821177 -24.884225010779954 13.437481505821177&#10;S 649.8443002927695 112.44967390664135 649.8443002927695 65.66733088637503&#10;s 11.446743504958778 -13.437481505821177 24.884225010779954 -13.437481505821177&#10;S 699.6127503143293 18.88498786610871 699.6127503143293 65.66733088637503&#10;z" fill="none" stroke="none"/><use xlink:href="#path-d6yqnjx2r0j-2" x="0" y="0" stroke="#ddeeff"><animateMotion begin="-2.724186369946189s" dur="17.018354993082944s" keyPoints="0;1" keyTimes="0;1" repeatCount="indefinite" calcMode="linear"><mpath xlink:href="#path7"/></animateMotion></use><path id="path8" d="M 714.4163305130343 66.0301766421151&#10;c 0 38.21160319342511 -9.349647589880611 10.975673257685937 -20.325320847566548 10.975673257685937&#10;S 673.7656888179012 104.2417798355402 673.7656888179012 66.0301766421151&#10;s 9.349647589880611 -10.975673257685937 20.325320847566548 -10.975673257685937&#10;S 714.4163305130343 27.818573448689982 714.4163305130343 66.0301766421151&#10;z" fill="none" stroke="none"/><use xlink:href="#path-d6yqnjx2r0j-2" x="0" y="0" stroke="#aabbcc"><animateMotion begin="-0.08695883317517028s" dur="15.65443930573988s" keyPoints="0;1" keyTimes="0;1" repeatCount="indefinite" calcMode="linear"><mpath xlink:href="#path8"/></animateMotion></use><path id="path9" d="M 804.4379530172436 376.3437754417696&#10;c 0 39.83736916987686 -9.747441392629442 11.442648591347607 -21.19008998397705 11.442648591347607&#10;S 762.0577730492895 416.18114461164646 762.0577730492895 376.3437754417696&#10;s 9.747441392629442 -11.442648591347607 21.19008998397705 -11.442648591347607&#10;S 804.4379530172436 336.50640627189273 804.4379530172436 376.3437754417696&#10;z" fill="none" stroke="none"/><use xlink:href="#path-d6yqnjx2r0j-3" x="0" y="0" stroke="#ddeeff"><animateMotion begin="-1.2873884992713647s" dur="17.62243779455751s" keyPoints="0;1" keyTimes="0;1" repeatCount="indefinite" calcMode="linear"><mpath xlink:href="#path9"/></animateMotion></use><path id="path10" d="M 914.8134289740756 533.1534708578854&#10;c 0 54.29516650022413 -13.284987547927178 15.595420164957995 -28.880407712885173 15.595420164957995&#10;S 857.0526135483053 587.4486373581095 857.0526135483053 533.1534708578854&#10;s 13.284987547927178 -15.595420164957995 28.880407712885173 -15.595420164957995&#10;S 914.8134289740756 478.85830435766127 914.8134289740756 533.1534708578854&#10;z" fill="none" stroke="none"/><use xlink:href="#path-d6yqnjx2r0j-3" x="0" y="0" stroke="#bbddff"><animateMotion begin="-0.9838040016112415s" dur="13.319904575387717s" keyPoints="1;0" keyTimes="0;1" repeatCount="indefinite" calcMode="linear"><mpath xlink:href="#path10"/></animateMotion></use><path id="path11" d="M 985.4770754760491 585.5566998285574&#10;c 0 42.89694368897167 -10.496060689854767 12.321462548959946 -22.817523238814715 12.321462548959946&#10;S 939.8420289984197 628.453643517529 939.8420289984197 585.5566998285574&#10;s 10.496060689854767 -12.321462548959946 22.817523238814715 -12.321462548959946&#10;S 985.4770754760491 542.6597561395857 985.4770754760491 585.5566998285574&#10;z" fill="none" stroke="none"/><use xlink:href="#path-d6yqnjx2r0j-3" x="0" y="0" stroke="#aabbcc"><animateMotion begin="-0.9023373164952098s" dur="11.529527659816525s" keyPoints="1;0" keyTimes="0;1" repeatCount="indefinite" calcMode="linear"><mpath xlink:href="#path11"/></animateMotion></use><path id="path12" d="M 1108.6113490411992 240.1534664459826&#10;c 0 27.11698496995659 -6.635006960734059 7.788921214774765 -14.423928175508824 7.788921214774765&#10;S 1079.7634926901817 267.2704514159392 1079.7634926901817 240.1534664459826&#10;s 6.635006960734059 -7.788921214774765 14.423928175508824 -7.788921214774765&#10;S 1108.6113490411992 213.03648147602598 1108.6113490411992 240.1534664459826&#10;z" fill="none" stroke="none"/><use xlink:href="#path-d6yqnjx2r0j-1" x="0" y="0" stroke="#bbddff"><animateMotion begin="-1.4867694657094865s" dur="18.704173949867364s" keyPoints="0;1" keyTimes="0;1" repeatCount="indefinite" calcMode="linear"><mpath xlink:href="#path12"/></animateMotion></use><path id="path13" d="M 1112.2818002103184 561.3616365821647&#10;c 0 23.129391584016336 -5.659319217365699 6.6435486464727775 -12.302867863838475 6.6435486464727775&#10;S 1087.6760644826416 584.4910281661811 1087.6760644826416 561.3616365821647&#10;s 5.659319217365699 -6.6435486464727775 12.302867863838475 -6.6435486464727775&#10;S 1112.2818002103184 538.2322449981483 1112.2818002103184 561.3616365821647&#10;z" fill="none" stroke="none"/><use xlink:href="#path-d6yqnjx2r0j-3" x="0" y="0" stroke="#bbddff"><animateMotion begin="-1.5432859464513293s" dur="10.496973958949955s" keyPoints="0;1" keyTimes="0;1" repeatCount="indefinite" calcMode="linear"><mpath xlink:href="#path13"/></animateMotion></use><path id="path14" d="M 1243.2118359846106 427.2035661125433&#10;c 0 38.12256868241503 -9.327862549952613 10.950099515161764 -20.277962065114377 10.950099515161764&#10;S 1202.6559118543817 465.3261347949583 1202.6559118543817 427.2035661125433&#10;s 9.327862549952613 -10.950099515161764 20.277962065114377 -10.950099515161764&#10;S 1243.2118359846106 389.08099743012826 1243.2118359846106 427.2035661125433&#10;z" fill="none" stroke="none"/><use xlink:href="#path-d6yqnjx2r0j-3" x="0" y="0" stroke="#aabbcc"><animateMotion begin="-1.7740685613367035s" dur="14.659360445160136s" keyPoints="0;1" keyTimes="0;1" repeatCount="indefinite" calcMode="linear"><mpath xlink:href="#path14"/></animateMotion></use><path id="path15" d="M 1312.422141197213 243.53195896452212&#10;c 0 20.200697272235015 -4.942723800653248 5.802327939897292 -10.74505174055054 5.802327939897292&#10;S 1290.932037716112 263.7326562367571 1290.932037716112 243.53195896452212&#10;s 4.942723800653248 -5.802327939897292 10.74505174055054 -5.802327939897292&#10;S 1312.422141197213 223.33126169228711 1312.422141197213 243.53195896452212&#10;z" fill="none" stroke="none"/><use xlink:href="#path-d6yqnjx2r0j-2" x="0" y="0" stroke="#ddeeff"><animateMotion begin="-4.9063697849275805s" dur="18.706645907055393s" keyPoints="1;0" keyTimes="0;1" repeatCount="indefinite" calcMode="linear"><mpath xlink:href="#path15"/></animateMotion></use><path id="path16" d="M 1431.7041364307947 190.61396955294066&#10;c 0 61.71146268211537 -15.099613209453759 17.725632898054414 -32.82524610750818 17.725632898054414&#10;S 1366.0536442157781 252.32543223505604 1366.0536442157781 190.61396955294066&#10;s 15.099613209453759 -17.725632898054414 32.82524610750818 -17.725632898054414&#10;S 1431.7041364307947 128.90250687082528 1431.7041364307947 190.61396955294066&#10;z" fill="none" stroke="none"/><use xlink:href="#path-d6yqnjx2r0j-2" x="0" y="0" stroke="#bbddff"><animateMotion begin="-4.14306334180322s" dur="19.029817645950427s" keyPoints="1;0" keyTimes="0;1" repeatCount="indefinite" calcMode="linear"><mpath xlink:href="#path16"/></animateMotion></use><path id="path17" d="M 1467.067797060522 532.6187512736185&#10;c 0 25.46421547375816 -6.23060591379189 7.314189550973088 -13.544795464764977 7.314189550973088&#10;S 1439.978206130992 558.0829667473766 1439.978206130992 532.6187512736185&#10;s 6.23060591379189 -7.314189550973088 13.544795464764977 -7.314189550973088&#10;S 1467.067797060522 507.15453579986035 1467.067797060522 532.6187512736185&#10;z" fill="none" stroke="none"/><use xlink:href="#path-d6yqnjx2r0j-1" x="0" y="0" stroke="#bbddff"><animateMotion begin="-1.391031509877677s" dur="18.900960784266207s" keyPoints="0;1" keyTimes="0;1" repeatCount="indefinite" calcMode="linear"><mpath xlink:href="#path17"/></animateMotion></use></g></svg>